<mxfile host="Electron" modified="2023-11-07T04:49:20.460Z" agent="Mozilla/5.0 (X11; Linux x86_64) AppleWebKit/537.36 (KHTML, like Gecko) draw.io/22.0.3 Chrome/114.0.5735.289 Electron/25.8.4 Safari/537.36" etag="8LsXXAoz4UnqaUsBECc6" version="22.0.3" type="device">
  <diagram name="Page-1" id="jNcVfUFwNesNaKVuXYyC">
    <mxGraphModel dx="1362" dy="843" grid="1" gridSize="10" guides="1" tooltips="1" connect="1" arrows="1" fold="1" page="1" pageScale="1" pageWidth="850" pageHeight="1100" math="0" shadow="0">
      <root>
        <mxCell id="0" />
        <mxCell id="1" parent="0" />
        <mxCell id="jNckEClQxKYpTligdhL6-3" value="" style="rounded=0;whiteSpace=wrap;html=1;fillColor=#4D4D4D;" parent="1" vertex="1">
          <mxGeometry x="380" y="120" width="60" height="180" as="geometry" />
        </mxCell>
        <mxCell id="jNckEClQxKYpTligdhL6-2" value="" style="rounded=0;whiteSpace=wrap;html=1;fillColor=#4D4D4D;" parent="1" vertex="1">
          <mxGeometry x="40" y="40" width="130" height="130" as="geometry" />
        </mxCell>
        <mxCell id="jNckEClQxKYpTligdhL6-25" value="" style="rounded=0;whiteSpace=wrap;html=1;fillColor=none;strokeWidth=2;" parent="1" vertex="1">
          <mxGeometry x="40" y="40" width="540" height="360" as="geometry" />
        </mxCell>
        <mxCell id="jNckEClQxKYpTligdhL6-30" value="" style="ellipse;whiteSpace=wrap;html=1;aspect=fixed;fillColor=#1B5085;strokeColor=#1B5085;direction=north;" parent="1" vertex="1">
          <mxGeometry x="94" y="190" width="20" height="20" as="geometry" />
        </mxCell>
        <mxCell id="jNckEClQxKYpTligdhL6-31" value="" style="endArrow=classic;html=1;rounded=0;strokeWidth=2;strokeColor=#1B5085;" parent="1" edge="1">
          <mxGeometry width="50" height="50" relative="1" as="geometry">
            <mxPoint x="104" y="200" as="sourcePoint" />
            <mxPoint x="121" y="180" as="targetPoint" />
          </mxGeometry>
        </mxCell>
        <mxCell id="jNckEClQxKYpTligdhL6-32" value="" style="ellipse;whiteSpace=wrap;html=1;aspect=fixed;fillColor=#1B5085;strokeColor=#1B5085;" parent="1" vertex="1">
          <mxGeometry x="215" y="117" width="20" height="20" as="geometry" />
        </mxCell>
        <mxCell id="jNckEClQxKYpTligdhL6-33" value="" style="endArrow=classic;html=1;rounded=0;strokeWidth=2;strokeColor=#1B5085;" parent="1" edge="1">
          <mxGeometry width="50" height="50" relative="1" as="geometry">
            <mxPoint x="225" y="127" as="sourcePoint" />
            <mxPoint x="210" y="110" as="targetPoint" />
          </mxGeometry>
        </mxCell>
        <mxCell id="jNckEClQxKYpTligdhL6-34" value="" style="ellipse;whiteSpace=wrap;html=1;aspect=fixed;fillColor=#1B5085;strokeColor=#1B5085;" parent="1" vertex="1">
          <mxGeometry x="485" y="79" width="20" height="20" as="geometry" />
        </mxCell>
        <mxCell id="jNckEClQxKYpTligdhL6-35" value="" style="endArrow=classic;html=1;rounded=0;strokeWidth=2;strokeColor=#1B5085;entryX=1.2;entryY=0.85;entryDx=0;entryDy=0;entryPerimeter=0;" parent="1" target="jNckEClQxKYpTligdhL6-46" edge="1">
          <mxGeometry width="50" height="50" relative="1" as="geometry">
            <mxPoint x="490" y="90" as="sourcePoint" />
            <mxPoint x="402" y="100" as="targetPoint" />
          </mxGeometry>
        </mxCell>
        <mxCell id="jNckEClQxKYpTligdhL6-36" value="" style="ellipse;whiteSpace=wrap;html=1;aspect=fixed;fillColor=#1B5085;strokeColor=#1B5085;" parent="1" vertex="1">
          <mxGeometry x="465" y="103" width="20" height="20" as="geometry" />
        </mxCell>
        <mxCell id="jNckEClQxKYpTligdhL6-37" value="" style="endArrow=classic;html=1;rounded=0;strokeWidth=2;strokeColor=#1B5085;" parent="1" edge="1">
          <mxGeometry width="50" height="50" relative="1" as="geometry">
            <mxPoint x="475" y="113" as="sourcePoint" />
            <mxPoint x="450" y="130" as="targetPoint" />
          </mxGeometry>
        </mxCell>
        <mxCell id="jNckEClQxKYpTligdhL6-38" value="" style="ellipse;whiteSpace=wrap;html=1;aspect=fixed;fillColor=#1B5085;strokeColor=#1B5085;" parent="1" vertex="1">
          <mxGeometry x="120" y="193" width="20" height="20" as="geometry" />
        </mxCell>
        <mxCell id="jNckEClQxKYpTligdhL6-39" value="" style="endArrow=classic;html=1;rounded=0;strokeWidth=2;strokeColor=#1B5085;" parent="1" edge="1">
          <mxGeometry width="50" height="50" relative="1" as="geometry">
            <mxPoint x="130" y="203" as="sourcePoint" />
            <mxPoint x="150" y="187" as="targetPoint" />
          </mxGeometry>
        </mxCell>
        <mxCell id="jNckEClQxKYpTligdhL6-40" value="" style="ellipse;whiteSpace=wrap;html=1;aspect=fixed;fillColor=#1B5085;strokeColor=#1B5085;" parent="1" vertex="1">
          <mxGeometry x="473" y="295" width="20" height="20" as="geometry" />
        </mxCell>
        <mxCell id="jNckEClQxKYpTligdhL6-41" value="" style="endArrow=classic;html=1;rounded=0;strokeWidth=2;strokeColor=#1B5085;" parent="1" edge="1">
          <mxGeometry width="50" height="50" relative="1" as="geometry">
            <mxPoint x="483" y="305" as="sourcePoint" />
            <mxPoint x="457" y="290" as="targetPoint" />
          </mxGeometry>
        </mxCell>
        <mxCell id="jNckEClQxKYpTligdhL6-42" value="" style="ellipse;whiteSpace=wrap;html=1;aspect=fixed;fillColor=#1B5085;strokeColor=#1B5085;" parent="1" vertex="1">
          <mxGeometry x="470" y="269" width="20" height="20" as="geometry" />
        </mxCell>
        <mxCell id="jNckEClQxKYpTligdhL6-43" value="" style="endArrow=classic;html=1;rounded=0;strokeWidth=2;strokeColor=#1B5085;" parent="1" edge="1">
          <mxGeometry width="50" height="50" relative="1" as="geometry">
            <mxPoint x="480" y="279" as="sourcePoint" />
            <mxPoint x="456" y="272" as="targetPoint" />
          </mxGeometry>
        </mxCell>
        <mxCell id="jNckEClQxKYpTligdhL6-44" value="" style="ellipse;whiteSpace=wrap;html=1;aspect=fixed;fillColor=#1B5085;strokeColor=#1B5085;" parent="1" vertex="1">
          <mxGeometry x="293" y="260" width="20" height="20" as="geometry" />
        </mxCell>
        <mxCell id="jNckEClQxKYpTligdhL6-45" value="" style="endArrow=classic;html=1;rounded=0;strokeWidth=2;strokeColor=#1B5085;" parent="1" edge="1">
          <mxGeometry width="50" height="50" relative="1" as="geometry">
            <mxPoint x="303" y="270" as="sourcePoint" />
            <mxPoint x="333" y="270" as="targetPoint" />
          </mxGeometry>
        </mxCell>
        <mxCell id="jNckEClQxKYpTligdhL6-47" value="" style="endArrow=classic;html=1;rounded=0;strokeWidth=2;strokeColor=#1B5085;" parent="1" source="jNckEClQxKYpTligdhL6-46" edge="1">
          <mxGeometry width="50" height="50" relative="1" as="geometry">
            <mxPoint x="413" y="81" as="sourcePoint" />
            <mxPoint x="430" y="100" as="targetPoint" />
          </mxGeometry>
        </mxCell>
        <mxCell id="jNckEClQxKYpTligdhL6-48" value="" style="ellipse;whiteSpace=wrap;html=1;aspect=fixed;fillColor=#1B5085;strokeColor=#1B5085;" parent="1" vertex="1">
          <mxGeometry x="89" y="305" width="20" height="20" as="geometry" />
        </mxCell>
        <mxCell id="jNckEClQxKYpTligdhL6-49" value="" style="endArrow=classic;html=1;rounded=0;strokeWidth=2;strokeColor=#1B5085;" parent="1" edge="1">
          <mxGeometry width="50" height="50" relative="1" as="geometry">
            <mxPoint x="99" y="315" as="sourcePoint" />
            <mxPoint x="119" y="295" as="targetPoint" />
          </mxGeometry>
        </mxCell>
        <mxCell id="jNckEClQxKYpTligdhL6-46" value="" style="ellipse;whiteSpace=wrap;html=1;aspect=fixed;fillColor=#1B5085;strokeColor=#1B5085;" parent="1" vertex="1">
          <mxGeometry x="450" y="83" width="20" height="20" as="geometry" />
        </mxCell>
        <mxCell id="-VoTBTaa7fAMJ5i6Yhki-1" value="5" style="text;html=1;strokeColor=none;fillColor=none;align=center;verticalAlign=middle;whiteSpace=wrap;rounded=0;fontColor=#CC0000;fontSize=30;fontStyle=1" vertex="1" parent="1">
          <mxGeometry x="40" y="53" width="60" height="30" as="geometry" />
        </mxCell>
      </root>
    </mxGraphModel>
  </diagram>
</mxfile>
